<?xml version="1.0" standalone="no"?>
<!DOCTYPE svg PUBLIC "-//W3C//DTD SVG 20010904//EN"
 "http://www.w3.org/TR/2001/REC-SVG-20010904/DTD/svg10.dtd">
<svg version="1.0" xmlns="http://www.w3.org/2000/svg"
 width="960.000000pt" height="960.000000pt" viewBox="0 0 960.000000 960.000000"
 preserveAspectRatio="xMidYMid meet">
<metadata>
Created by potrace 1.14, written by Peter Selinger 2001-2017
</metadata>
<g transform="translate(0.000000,960.000000) scale(0.100000,-0.100000)"
fill="#000000" stroke="none">
<path d="M0 4800 l0 -2640 4800 0 4800 0 0 2640 0 2640 -4800 0 -4800 0 0
-2640z m3450 1300 c267 -20 441 -66 592 -156 94 -56 225 -179 285 -269 90
-134 190 -375 156 -375 -10 0 -781 -138 -810 -145 -18 -4 -26 5 -51 59 -73
157 -209 247 -401 266 -274 29 -507 -93 -619 -324 -62 -129 -92 -295 -92 -520
0 -495 155 -764 486 -842 88 -20 320 -15 407 10 90 25 207 74 288 120 l74 42
0 134 0 135 -295 5 -295 5 0 290 0 290 683 3 682 2 0 -607 0 -608 -103 -66
c-301 -195 -541 -301 -787 -348 -368 -71 -800 -61 -1100 26 -462 133 -775 492
-886 1017 -20 96 -27 161 -31 317 -10 332 31 557 143 798 152 326 444 579 780
676 229 66 558 90 894 65z m3195 0 c383 -36 665 -157 886 -379 184 -185 292
-391 348 -667 73 -357 40 -813 -79 -1111 -133 -331 -408 -589 -748 -703 -275
-92 -670 -111 -1009 -50 -400 72 -689 267 -883 597 -139 234 -200 493 -200
843 0 543 169 939 509 1196 294 221 709 318 1176 274z"/>
<path d="M6270 5424 c-96 -25 -161 -64 -236 -138 -84 -84 -122 -157 -160 -301
-23 -87 -27 -126 -31 -306 -7 -286 22 -458 103 -604 41 -73 138 -164 216 -203
182 -89 442 -78 604 26 176 114 252 302 270 668 11 240 -25 459 -99 598 -65
123 -199 224 -342 261 -75 19 -251 19 -325 -1z"/>
</g>
</svg>
